<svg xmlns="http://www.w3.org/2000/svg" viewBox="0 0 800 600" width="800" height="600">
  <defs>
    <linearGradient id="sky" x1="0" y1="0" x2="0" y2="1">
      <stop offset="0" stop-color="#a8e0f5"/>
      <stop offset="1" stop-color="#eaf8fe"/>
    </linearGradient>
  </defs>

  <rect width="800" height="600" fill="url(#sky)"/>

  <g stroke="#ffd94d" stroke-width="7" stroke-linecap="round">
    <line x1="680" y1="18" x2="680" y2="34"/>
    <line x1="680" y1="146" x2="680" y2="162"/>
    <line x1="608" y1="90" x2="624" y2="90"/>
    <line x1="736" y1="90" x2="752" y2="90"/>
    <line x1="629" y1="39" x2="640" y2="50"/>
    <line x1="720" y1="130" x2="731" y2="141"/>
    <line x1="731" y1="39" x2="720" y2="50"/>
    <line x1="640" y1="130" x2="629" y2="141"/>
  </g>
  <circle cx="680" cy="90" r="44" fill="#ffd94d"/>

  <g fill="#ffffff" opacity="0.9">
    <ellipse cx="150" cy="110" rx="55" ry="24"/>
    <ellipse cx="195" cy="98" rx="45" ry="22"/>
    <ellipse cx="110" cy="100" rx="35" ry="18"/>
    <ellipse cx="430" cy="70" rx="48" ry="20"/>
    <ellipse cx="470" cy="60" rx="36" ry="17"/>
  </g>

  <rect x="0" y="520" width="800" height="80" fill="#8fd18a"/>
  <rect x="0" y="520" width="800" height="42" fill="#e6d3a8"/>
  <line x1="0" y1="520" x2="800" y2="520" stroke="#c9b183" stroke-width="4"/>

  <g stroke="#6fb56a" stroke-width="4" stroke-linecap="round" fill="none">
    <path d="M 60 522 q 4 -14 8 0 M 68 522 q 4 -18 8 0"/>
    <path d="M 330 524 q 4 -14 8 0 M 338 524 q 4 -18 8 0"/>
    <path d="M 700 522 q 4 -14 8 0 M 708 522 q 4 -18 8 0"/>
    <path d="M 770 560 q 4 -14 8 0 M 778 560 q 4 -18 8 0"/>
    <path d="M 120 565 q 4 -14 8 0 M 128 565 q 4 -18 8 0"/>
  </g>

  <g stroke="#b8dfe8" stroke-width="7" stroke-linecap="round">
    <line x1="55" y1="300" x2="135" y2="300"/>
    <line x1="35" y1="365" x2="125" y2="365"/>
    <line x1="65" y1="430" x2="145" y2="430"/>
  </g>

  <g>
    <circle cx="230" cy="460" r="85" fill="none" stroke="#333333" stroke-width="11"/>
    <circle cx="230" cy="460" r="71" fill="none" stroke="#999999" stroke-width="3"/>
    <g stroke="#bbbbbb" stroke-width="2.5">
      <line x1="230" y1="460" x2="300" y2="460"/>
      <line x1="230" y1="460" x2="279.5" y2="410.5"/>
      <line x1="230" y1="460" x2="230" y2="390"/>
      <line x1="230" y1="460" x2="180.5" y2="410.5"/>
      <line x1="230" y1="460" x2="160" y2="460"/>
      <line x1="230" y1="460" x2="180.5" y2="509.5"/>
      <line x1="230" y1="460" x2="230" y2="530"/>
      <line x1="230" y1="460" x2="279.5" y2="509.5"/>
    </g>
    <circle cx="230" cy="460" r="9" fill="#333333"/>

    <circle cx="570" cy="460" r="85" fill="none" stroke="#333333" stroke-width="11"/>
    <circle cx="570" cy="460" r="71" fill="none" stroke="#999999" stroke-width="3"/>
    <g stroke="#bbbbbb" stroke-width="2.5">
      <line x1="570" y1="460" x2="640" y2="460"/>
      <line x1="570" y1="460" x2="619.5" y2="410.5"/>
      <line x1="570" y1="460" x2="570" y2="390"/>
      <line x1="570" y1="460" x2="520.5" y2="410.5"/>
      <line x1="570" y1="460" x2="500" y2="460"/>
      <line x1="570" y1="460" x2="520.5" y2="509.5"/>
      <line x1="570" y1="460" x2="570" y2="530"/>
      <line x1="570" y1="460" x2="619.5" y2="509.5"/>
    </g>
    <circle cx="570" cy="460" r="9" fill="#333333"/>

    <g stroke="#d64550" stroke-width="11" stroke-linecap="round" fill="none">
      <line x1="230" y1="460" x2="400" y2="460"/>
      <line x1="230" y1="460" x2="310" y2="310"/>
      <line x1="310" y1="310" x2="400" y2="460"/>
      <line x1="310" y1="310" x2="520" y2="300"/>
      <line x1="400" y1="460" x2="540" y2="340"/>
      <line x1="520" y1="300" x2="540" y2="340"/>
      <line x1="540" y1="340" x2="570" y2="460"/>
    </g>

    <path d="M 520 300 L 512 268 Q 510 256 522 254 L 550 250" fill="none" stroke="#333333" stroke-width="9" stroke-linecap="round"/>
    <path d="M 283 302 Q 310 290 337 302 Q 334 313 310 313 L 290 313 Q 280 311 283 302 Z" fill="#333333"/>

    <circle cx="400" cy="460" r="11" fill="#333333"/>
    <line x1="400" y1="460" x2="378" y2="478" stroke="#333333" stroke-width="7" stroke-linecap="round"/>
    <line x1="400" y1="460" x2="422" y2="442" stroke="#333333" stroke-width="7" stroke-linecap="round"/>
    <line x1="364" y1="478" x2="392" y2="478" stroke="#333333" stroke-width="7" stroke-linecap="round"/>
    <line x1="408" y1="442" x2="436" y2="442" stroke="#333333" stroke-width="7" stroke-linecap="round"/>
  </g>

  <g>
    <path d="M 262 318 Q 190 285 170 292 Q 180 316 205 331 Q 235 349 268 353 Z" fill="#e8e8e8" stroke="#c9c9c9" stroke-width="3" stroke-linejoin="round"/>

    <path d="M 350 392 L 388 468" stroke="#e8862e" stroke-width="10" stroke-linecap="round"/>
    <path d="M 370 396 L 408 446" stroke="#cf7220" stroke-width="10" stroke-linecap="round"/>
    <path d="M 374 466 L 404 468 L 399 484 L 376 482 Z" fill="#e8862e"/>
    <path d="M 396 444 L 426 446 L 421 462 L 398 460 Z" fill="#cf7220"/>

    <ellipse cx="325" cy="345" rx="78" ry="58" fill="#f7f7f7" stroke="#c9c9c9" stroke-width="3" transform="rotate(-8 325 345)"/>

    <ellipse cx="318" cy="340" rx="55" ry="34" fill="#e3e3e3" stroke="#c9c9c9" stroke-width="3" transform="rotate(-12 318 340)"/>
    <path d="M 285 325 Q 315 315 348 322 M 288 345 Q 318 336 346 342" fill="none" stroke="#c9c9c9" stroke-width="2.5" stroke-linecap="round"/>

    <path d="M 385 320 C 400 290 410 270 422 254 L 454 266 C 442 292 428 312 412 332 Z" fill="#f7f7f7" stroke="#c9c9c9" stroke-width="3" stroke-linejoin="round"/>

    <circle cx="438" cy="238" r="33" fill="#f7f7f7" stroke="#c9c9c9" stroke-width="3"/>
    <path d="M 428 210 Q 434 196 448 202 Q 438 206 436 214 Z" fill="#e8e8e8" stroke="#c9c9c9" stroke-width="2.5" stroke-linejoin="round"/>

    <path d="M 462 224 L 618 208 L 618 220 L 464 242 Z" fill="#f5a623" stroke="#d98a1a" stroke-width="3" stroke-linejoin="round"/>
    <path d="M 464 242 L 618 220 C 606 268 578 300 540 304 C 502 308 474 286 464 242 Z" fill="#f7c873" stroke="#d98a1a" stroke-width="3" stroke-linejoin="round"/>

    <path d="M 552 296 Q 560 268 578 256 L 590 270 Q 572 280 566 300 Z" fill="#7ec8e3" stroke="#4aa3c7" stroke-width="2.5" stroke-linejoin="round"/>
    <circle cx="584" cy="263" r="2.5" fill="#222222"/>

    <circle cx="446" cy="230" r="5.5" fill="#222222"/>
    <circle cx="448" cy="228" r="1.8" fill="#ffffff"/>

    <g fill="#7ec8e3">
      <circle cx="632" cy="238" r="4"/>
      <circle cx="644" cy="256" r="3"/>
      <circle cx="626" cy="258" r="2.5"/>
    </g>
  </g>
</svg>
